<svg data-v-2cb57da0="" version="1.0" xmlns="http://www.w3.org/2000/svg" xmlns:xlink="http://www.w3.org/1999/xlink" width="100%" height="100%" viewBox="0 0 340.000000 250.000000" preserveAspectRatio="xMidYMid meet" color-interpolation-filters="sRGB" style="margin: auto;"><rect data-v-2cb57da0="" x="0" y="0" width="100%" height="100%" fill="url(#watermark)" fill-opacity="1" class="watermarklayer"></rect> <g data-v-2cb57da0="" class="iconmbgsvg" transform="translate(67.0407943725586,56.814735412597656)"><g fill="#0bbf64" hollow-target="textRect"><g transform="translate(35.459205627441406,0)" mask="url(#b0e4029a-fc21-426b-9ce4-b0adfbae6cc8)"><g><rect fill="#0bbf64" fill-opacity="0" stroke-width="2" x="0" y="0" width="134.99999999999997" height="136.37052376382644" class="image-rect"></rect> <svg filter="url(#colors2314773887)" x="0" y="0" width="134.99999999999997" height="136.37052376382644" filtersec="colorsf2972859891" class="image-svg-svg primary" style="overflow: visible;"><svg xmlns="http://www.w3.org/2000/svg" viewBox="2.13 -1.42 334 337.35001"><g><g fill="none" stroke="#000000" stroke-linecap="round" stroke-linejoin="round"><path stroke-width="10.61" d="M204.48 298.57v-6.33M192.7 310.36v-18.12M180.91 322.14v-29.9M169.13 333.93v-41.69M157.34 322.14v-29.9M145.55 310.36v-18.12M133.77 298.57v-6.33"></path><path stroke-width="9.43" d="M263.41 239.64v-9.87M251.63 251.43v-21.66M239.84 263.21v-33.44M228.05 275v-45.23M216.27 286.79v-57.02M204.48 292.53v-62.76M192.7 292.53v-62.76M180.91 292.24v-62.47M169.13 292.53v-62.76M157.34 292.24v-62.47M145.55 292.53v-62.76M133.77 292.53v-62.76M121.98 286.79v-57.02M110.2 275v-45.23M98.41 263.21v-33.44M86.63 251.43v-21.66M74.84 239.64v-9.87"></path><path stroke-width="8.25" d="M334.13 168.93v-1.62M322.34 180.71v-13.4M310.55 192.5v-25.19M298.77 204.29v-36.98M286.98 216.07v-48.76M275.2 227.86v-60.55M263.41 229.77v-62.46M251.63 230.07v-62.76M239.84 229.77v-62.46M228.05 230.07v-62.76M216.27 229.77v-62.46M204.48 229.77v-62.46M192.7 230.07v-62.76M180.91 229.77v-62.46M169.13 230.07v-62.76M157.34 229.77v-62.46M145.55 230.07v-62.76M133.77 229.77v-62.46M121.98 229.77v-62.46M110.2 230.07v-62.76M98.41 229.77v-62.46M86.63 230.07v-62.76M74.84 229.77v-62.46M63.05 227.86v-60.55M51.27 216.07v-48.76M39.48 204.29v-36.98M27.7 192.5v-25.19M15.91 180.71v-13.4M4.13 168.93v-1.62"></path><path stroke-width="5.87" d="M334.13 167.31v-1.73M322.34 167.31v-13.52M310.55 167.31v-25.3M298.77 167.31v-37.09M286.98 167.31v-48.88M275.2 167.31v-60.66M263.41 167.31v-62.47M251.63 167.6v-62.76M239.84 167.31v-62.47M228.05 167.31v-62.47M216.27 167.31v-62.47M204.48 167.31v-62.47M192.7 167.31v-62.47M180.91 167.31v-62.47M169.13 167.6v-62.76M157.34 167.31v-62.47M145.55 167.31v-62.47M133.77 167.31v-62.47M121.98 167.31v-62.47M110.2 167.31v-62.47M98.41 167.31v-62.47M86.63 167.6v-62.76M74.84 167.31v-62.47M63.05 167.31v-60.66M51.27 167.31v-48.88M39.48 167.31v-37.09M27.7 167.31v-25.3M15.91 167.31v-13.52M4.13 167.31v-1.73"></path><path stroke-width="1.16" d="M204.48 42.52v-6.59M192.7 42.52V24.15M180.91 42.22V12.36M169.13 42.52V.58M157.34 42.22V12.36M145.55 42.52V24.15M133.77 42.52v-6.59"></path><path stroke-width="3.51" d="M263.41 104.77v-9.91M251.63 105.06V83.08M239.84 104.77V71.29M228.05 105.06V59.51M216.27 104.77V47.72M204.48 104.77V42.3M192.7 105.06V42.3M180.91 104.77V42.3M169.13 105.06V42.3M157.34 104.77V42.3M145.55 105.06V42.3M133.77 104.77V42.3M121.98 104.77V47.72M110.2 105.06V59.51M98.41 104.77V71.29M86.63 105.06V83.08M74.84 104.77v-9.91"></path></g></g></svg></svg> <defs><filter id="colors2314773887"><feColorMatrix type="matrix" values="0 0 0 0 0.04296875  0 0 0 0 0.74609375  0 0 0 0 0.390625  0 0 0 1 0" class="icon-fecolormatrix"></feColorMatrix></filter> <filter id="colorsf2972859891"><feColorMatrix type="matrix" values="0 0 0 0 0.99609375  0 0 0 0 0.99609375  0 0 0 0 0.99609375  0 0 0 1 0" class="icon-fecolormatrix"></feColorMatrix></filter> <filter id="colorsb1947538081"><feColorMatrix type="matrix" values="0 0 0 0 0  0 0 0 0 0  0 0 0 0 0  0 0 0 1 0" class="icon-fecolormatrix"></feColorMatrix></filter></defs></g></g> <g transform="translate(0,52.860565185546875)"><g data-gra="path-name" fill-rule="" class="tp-name"><g transform="scale(0.8599999999999999)"><g><path d="M21.45-39.41L37.21 0 33.08 0Q32.37 0 31.93-0.36 31.49-0.71 31.27-1.26L31.27-1.26 27.58-10.78 9.9-10.78 6.21-1.26Q6.02-0.77 5.55-0.39 5.09 0 4.4 0L4.4 0 0.28 0 16.03-39.41 21.45-39.41ZM17.57-30.64L11.38-14.63 26.1-14.63 19.91-30.66Q19.3-32.15 18.73-34.38L18.73-34.38Q18.43-33.25 18.14-32.3 17.85-31.35 17.57-30.64L17.57-30.64ZM63.66-35.78L62.37-33.25Q62.12-32.84 61.85-32.63 61.57-32.42 61.13-32.42L61.13-32.42Q60.66-32.42 60.05-32.89 59.43-33.36 58.48-33.92 57.53-34.48 56.2-34.95 54.86-35.42 52.96-35.42L52.96-35.42Q51.18-35.42 49.8-34.94 48.43-34.46 47.51-33.63 46.59-32.81 46.12-31.69 45.65-30.58 45.65-29.29L45.65-29.29Q45.65-27.64 46.46-26.55 47.27-25.46 48.61-24.7 49.94-23.93 51.63-23.36 53.32-22.8 55.1-22.19 56.87-21.59 58.56-20.83 60.25-20.07 61.59-18.92 62.92-17.77 63.73-16.09 64.54-14.41 64.54-11.96L64.54-11.96Q64.54-9.38 63.66-7.11 62.78-4.84 61.09-3.16 59.4-1.49 56.94-0.52 54.48 0.44 51.34 0.44L51.34 0.44Q47.52 0.44 44.37-0.95 41.22-2.34 38.99-4.7L38.99-4.7 40.53-7.23Q40.75-7.54 41.07-7.74 41.39-7.95 41.77-7.95L41.77-7.95Q42.35-7.95 43.09-7.33 43.84-6.71 44.95-5.97 46.06-5.22 47.64-4.61 49.22-3.99 51.51-3.99L51.51-3.99Q53.41-3.99 54.89-4.51 56.38-5.03 57.41-5.98 58.44-6.93 58.99-8.25 59.54-9.57 59.54-11.19L59.54-11.19Q59.54-12.98 58.73-14.12 57.91-15.26 56.59-16.03 55.27-16.8 53.58-17.34 51.89-17.88 50.12-18.44 48.34-19 46.65-19.75 44.96-20.49 43.64-21.67 42.32-22.85 41.51-24.63 40.7-26.4 40.7-29.01L40.7-29.01Q40.7-31.1 41.51-33.05 42.32-35.01 43.86-36.52 45.4-38.03 47.67-38.94 49.94-39.85 52.88-39.85L52.88-39.85Q56.18-39.85 58.91-38.8 61.63-37.76 63.66-35.78L63.66-35.78ZM77.66-39.41L77.66 0 72.33 0 72.33-39.41 77.66-39.41ZM107.61-14.24L107.61-14.24Q107.99-13.59 108.28-12.86 108.57-12.13 108.84-11.38L108.84-11.38Q109.12-12.15 109.42-12.86 109.72-13.56 110.11-14.27L110.11-14.27 123.45-38.5Q123.81-39.13 124.19-39.27 124.58-39.41 125.29-39.41L125.29-39.41 129.22-39.41 129.22 0 124.55 0 124.55-28.96Q124.55-29.54 124.58-30.2 124.6-30.86 124.66-31.54L124.66-31.54 111.16-6.9Q110.47-5.67 109.23-5.67L109.23-5.67 108.46-5.67Q107.22-5.67 106.53-6.9L106.53-6.9 92.73-31.63Q92.81-30.91 92.85-30.22 92.9-29.54 92.9-28.96L92.9-28.96 92.9 0 88.22 0 88.22-39.41 92.15-39.41Q92.87-39.41 93.25-39.27 93.64-39.13 94-38.5L94-38.5 107.61-14.24ZM155.48-39.41L171.24 0 167.12 0Q166.4 0 165.96-0.36 165.52-0.71 165.3-1.26L165.3-1.26 161.62-10.78 143.94-10.78 140.25-1.26Q140.06-0.77 139.59-0.39 139.12 0 138.44 0L138.44 0 134.31 0 150.07-39.41 155.48-39.41ZM151.61-30.64L145.42-14.63 160.13-14.63 153.94-30.66Q153.34-32.15 152.76-34.38L152.76-34.38Q152.46-33.25 152.17-32.3 151.88-31.35 151.61-30.64L151.61-30.64ZM192.64-3.88L192.64-3.88Q194.23-3.88 195.57-4.03 196.9-4.18 198.08-4.48 199.26-4.79 200.31-5.21 201.35-5.64 202.4-6.19L202.4-6.19 202.4-14.88 196.3-14.88Q195.77-14.88 195.46-15.18 195.14-15.48 195.14-15.92L195.14-15.92 195.14-18.95 207.24-18.95 207.24-3.82Q205.75-2.75 204.15-1.95 202.54-1.16 200.71-0.62 198.88-0.08 196.79 0.18 194.7 0.44 192.25 0.44L192.25 0.44Q187.96 0.44 184.39-1.03 180.81-2.5 178.23-5.16 175.64-7.81 174.2-11.52 172.75-15.23 172.75-19.69L172.75-19.69Q172.75-24.2 174.17-27.91 175.59-31.63 178.21-34.28 180.84-36.93 184.57-38.39 188.29-39.85 192.91-39.85L192.91-39.85Q195.25-39.85 197.26-39.5 199.26-39.16 200.98-38.51 202.7-37.87 204.16-36.95 205.62-36.02 206.88-34.87L206.88-34.87 205.37-32.45Q204.9-31.71 204.16-31.71L204.16-31.71Q203.72-31.71 203.2-32.01L203.2-32.01Q202.51-32.4 201.66-32.95 200.81-33.49 199.58-34 198.36-34.51 196.69-34.87 195.03-35.23 192.75-35.23L192.75-35.23Q189.42-35.23 186.72-34.14 184.03-33.05 182.13-31.03 180.24-29.01 179.22-26.14 178.2-23.27 178.2-19.69L178.2-19.69Q178.2-15.95 179.26-13.02 180.32-10.09 182.24-8.06 184.17-6.02 186.81-4.95 189.45-3.88 192.64-3.88ZM215.44-39.41L239.72-39.41 239.72-35.06 220.8-35.06 220.8-21.97 236.12-21.97 236.12-17.79 220.8-17.79 220.8-4.34 239.72-4.34 239.72 0 215.44 0 215.44-39.41Z" transform="translate(-0.2800000011920929, 39.849998474121094)"></path></g> <!----> <!----> <!----> <!----> <!----> <!----> <!----></g></g> <!----></g></g></g><defs v-gra="od"></defs><mask id="b0e4029a-fc21-426b-9ce4-b0adfbae6cc8"><g fill="white"><g><rect fill-opacity="1" stroke-width="2" x="0" y="0" width="134.99999999999997" height="136.37052376382644" class="image-rect"></rect> <svg x="0" y="0" width="134.99999999999997" height="136.37052376382644" class="image-svg-svg primary" style="overflow: visible;" filter="url(#colorsf2972859891)"><svg xmlns="http://www.w3.org/2000/svg" viewBox="2.13 -1.42 334 337.35001"><g><g fill="none" stroke="#000000" stroke-linecap="round" stroke-linejoin="round"><path stroke-width="10.61" d="M204.48 298.57v-6.33M192.7 310.36v-18.12M180.91 322.14v-29.9M169.13 333.93v-41.69M157.34 322.14v-29.9M145.55 310.36v-18.12M133.77 298.57v-6.33"></path><path stroke-width="9.43" d="M263.41 239.64v-9.87M251.63 251.43v-21.66M239.84 263.21v-33.44M228.05 275v-45.23M216.27 286.79v-57.02M204.48 292.53v-62.76M192.7 292.53v-62.76M180.91 292.24v-62.47M169.13 292.53v-62.76M157.34 292.24v-62.47M145.55 292.53v-62.76M133.77 292.53v-62.76M121.98 286.79v-57.02M110.2 275v-45.23M98.41 263.21v-33.44M86.63 251.43v-21.66M74.84 239.64v-9.87"></path><path stroke-width="8.25" d="M334.13 168.93v-1.62M322.34 180.71v-13.4M310.55 192.5v-25.19M298.77 204.29v-36.98M286.98 216.07v-48.76M275.2 227.86v-60.55M263.41 229.77v-62.46M251.63 230.07v-62.76M239.84 229.77v-62.46M228.05 230.07v-62.76M216.27 229.77v-62.46M204.48 229.77v-62.46M192.7 230.07v-62.76M180.91 229.77v-62.46M169.13 230.07v-62.76M157.34 229.77v-62.46M145.55 230.07v-62.76M133.77 229.77v-62.46M121.98 229.77v-62.46M110.2 230.07v-62.76M98.41 229.77v-62.46M86.63 230.07v-62.76M74.84 229.77v-62.46M63.05 227.86v-60.55M51.27 216.07v-48.76M39.48 204.29v-36.98M27.7 192.5v-25.19M15.91 180.71v-13.4M4.13 168.93v-1.62"></path><path stroke-width="5.87" d="M334.13 167.31v-1.73M322.34 167.31v-13.52M310.55 167.31v-25.3M298.77 167.31v-37.09M286.98 167.31v-48.88M275.2 167.31v-60.66M263.41 167.31v-62.47M251.63 167.6v-62.76M239.84 167.31v-62.47M228.05 167.31v-62.47M216.27 167.31v-62.47M204.48 167.31v-62.47M192.7 167.31v-62.47M180.91 167.31v-62.47M169.13 167.6v-62.76M157.34 167.31v-62.47M145.55 167.31v-62.47M133.77 167.31v-62.47M121.98 167.31v-62.47M110.2 167.31v-62.47M98.41 167.31v-62.47M86.63 167.6v-62.76M74.84 167.31v-62.47M63.05 167.31v-60.66M51.27 167.31v-48.88M39.48 167.31v-37.09M27.7 167.31v-25.3M15.91 167.31v-13.52M4.13 167.31v-1.73"></path><path stroke-width="1.16" d="M204.48 42.52v-6.59M192.7 42.52V24.15M180.91 42.22V12.36M169.13 42.52V.58M157.34 42.22V12.36M145.55 42.52V24.15M133.77 42.52v-6.59"></path><path stroke-width="3.51" d="M263.41 104.77v-9.91M251.63 105.06V83.08M239.84 104.77V71.29M228.05 105.06V59.51M216.27 104.77V47.72M204.48 104.77V42.3M192.7 105.06V42.3M180.91 104.77V42.3M169.13 105.06V42.3M157.34 104.77V42.3M145.55 105.06V42.3M133.77 104.77V42.3M121.98 104.77V47.72M110.2 105.06V59.51M98.41 104.77V71.29M86.63 105.06V83.08M74.84 104.77v-9.91"></path></g></g></svg></svg> <defs>  </defs></g></g> <g transform="translate(-35.459205627441406,52.860565185546875)"><rect  fill-opacity="1" x="-3.5" y="-3.5" width="212.9184112548828" height="41.64939880371094"></rect><rect fill-opacity="1" x="-3.5" y="-3.5"></rect></g><g transform="translate(-35.459205627441406,52.860565185546875)" ><g data-gra="path-name" fill-rule="" class="tp-name"><g transform="scale(0.8599999999999999)"><g><path d="M21.45-39.41L37.21 0 33.08 0Q32.37 0 31.93-0.36 31.49-0.71 31.27-1.26L31.27-1.26 27.58-10.78 9.9-10.78 6.21-1.26Q6.02-0.77 5.55-0.39 5.09 0 4.4 0L4.4 0 0.28 0 16.03-39.41 21.45-39.41ZM17.57-30.64L11.38-14.63 26.1-14.63 19.91-30.66Q19.3-32.15 18.73-34.38L18.73-34.38Q18.43-33.25 18.14-32.3 17.85-31.35 17.57-30.64L17.57-30.64ZM63.66-35.78L62.37-33.25Q62.12-32.84 61.85-32.63 61.57-32.42 61.13-32.42L61.13-32.42Q60.66-32.42 60.05-32.89 59.43-33.36 58.48-33.92 57.53-34.48 56.2-34.95 54.86-35.42 52.96-35.42L52.96-35.42Q51.18-35.42 49.8-34.94 48.43-34.46 47.51-33.63 46.59-32.81 46.12-31.69 45.65-30.58 45.65-29.29L45.65-29.29Q45.65-27.64 46.46-26.55 47.27-25.46 48.61-24.7 49.94-23.93 51.63-23.36 53.32-22.8 55.1-22.19 56.87-21.59 58.56-20.83 60.25-20.07 61.59-18.92 62.92-17.77 63.73-16.09 64.54-14.41 64.54-11.96L64.54-11.96Q64.54-9.38 63.66-7.11 62.78-4.84 61.09-3.16 59.4-1.49 56.94-0.52 54.48 0.44 51.34 0.44L51.34 0.44Q47.52 0.44 44.37-0.95 41.22-2.34 38.99-4.7L38.99-4.7 40.53-7.23Q40.75-7.54 41.07-7.74 41.39-7.95 41.77-7.95L41.77-7.95Q42.35-7.95 43.09-7.33 43.84-6.71 44.95-5.97 46.06-5.22 47.64-4.61 49.22-3.99 51.51-3.99L51.51-3.99Q53.41-3.99 54.89-4.51 56.38-5.03 57.41-5.98 58.44-6.93 58.99-8.25 59.54-9.57 59.54-11.19L59.54-11.19Q59.54-12.98 58.73-14.12 57.91-15.26 56.59-16.03 55.27-16.8 53.58-17.34 51.89-17.88 50.12-18.44 48.34-19 46.65-19.75 44.96-20.49 43.64-21.67 42.32-22.85 41.51-24.63 40.7-26.4 40.7-29.01L40.7-29.01Q40.7-31.1 41.51-33.05 42.32-35.01 43.86-36.52 45.4-38.03 47.67-38.94 49.94-39.85 52.88-39.85L52.88-39.85Q56.18-39.85 58.91-38.8 61.63-37.76 63.66-35.78L63.66-35.78ZM77.66-39.41L77.66 0 72.33 0 72.33-39.41 77.66-39.41ZM107.61-14.24L107.61-14.24Q107.99-13.59 108.28-12.86 108.57-12.13 108.84-11.38L108.84-11.38Q109.12-12.15 109.42-12.86 109.72-13.56 110.11-14.27L110.11-14.27 123.45-38.5Q123.81-39.13 124.19-39.27 124.58-39.41 125.29-39.41L125.29-39.41 129.22-39.41 129.22 0 124.55 0 124.55-28.96Q124.55-29.54 124.58-30.2 124.6-30.86 124.66-31.54L124.66-31.54 111.16-6.9Q110.47-5.67 109.23-5.67L109.23-5.67 108.46-5.67Q107.22-5.67 106.53-6.9L106.53-6.9 92.73-31.63Q92.81-30.91 92.85-30.22 92.9-29.54 92.9-28.96L92.9-28.96 92.9 0 88.22 0 88.22-39.41 92.15-39.41Q92.87-39.41 93.25-39.27 93.64-39.13 94-38.5L94-38.5 107.61-14.24ZM155.48-39.41L171.24 0 167.12 0Q166.4 0 165.96-0.36 165.52-0.71 165.3-1.26L165.3-1.26 161.62-10.78 143.94-10.78 140.25-1.26Q140.06-0.77 139.59-0.39 139.12 0 138.44 0L138.44 0 134.31 0 150.07-39.41 155.48-39.41ZM151.61-30.64L145.42-14.63 160.13-14.63 153.94-30.66Q153.34-32.15 152.76-34.38L152.76-34.38Q152.46-33.25 152.17-32.3 151.88-31.35 151.61-30.64L151.61-30.64ZM192.64-3.88L192.64-3.88Q194.23-3.88 195.57-4.03 196.9-4.18 198.08-4.48 199.26-4.79 200.31-5.21 201.35-5.64 202.4-6.19L202.4-6.19 202.4-14.88 196.3-14.88Q195.77-14.88 195.46-15.18 195.14-15.48 195.14-15.92L195.14-15.92 195.14-18.95 207.24-18.95 207.24-3.82Q205.75-2.75 204.15-1.95 202.54-1.16 200.71-0.62 198.88-0.08 196.79 0.18 194.7 0.44 192.25 0.44L192.25 0.44Q187.96 0.44 184.39-1.03 180.81-2.5 178.23-5.16 175.64-7.81 174.2-11.52 172.75-15.23 172.75-19.69L172.75-19.69Q172.75-24.2 174.17-27.91 175.59-31.63 178.21-34.28 180.84-36.93 184.57-38.39 188.29-39.85 192.91-39.85L192.91-39.85Q195.25-39.85 197.26-39.5 199.26-39.16 200.98-38.51 202.7-37.87 204.16-36.95 205.62-36.02 206.88-34.87L206.88-34.87 205.37-32.45Q204.9-31.71 204.16-31.71L204.16-31.71Q203.72-31.71 203.2-32.01L203.2-32.01Q202.51-32.4 201.66-32.95 200.81-33.49 199.58-34 198.36-34.51 196.69-34.87 195.03-35.23 192.75-35.23L192.75-35.23Q189.42-35.23 186.72-34.14 184.03-33.05 182.13-31.03 180.24-29.01 179.22-26.14 178.2-23.27 178.2-19.69L178.2-19.69Q178.2-15.95 179.26-13.02 180.32-10.09 182.24-8.06 184.17-6.02 186.81-4.95 189.45-3.88 192.64-3.88ZM215.44-39.41L239.72-39.41 239.72-35.06 220.8-35.06 220.8-21.97 236.12-21.97 236.12-17.79 220.8-17.79 220.8-4.34 239.72-4.34 239.72 0 215.44 0 215.44-39.41Z" transform="translate(-0.2800000011920929, 39.849998474121094)"></path></g>       </g></g> </g></mask></svg>